<?xml version="1.0" encoding="utf-8"?>
<svg viewBox="0 0 256.4 250" xmlns="http://www.w3.org/2000/svg" width="100px" height="100px">
  <g fill="#99f" style="" transform="matrix(1.000001, 0, 0, 1.000001, 0, -0.000003)">
    <path d="M 100.7 149.6 L 61 149.6 L 52.9 174.8 C 52.7 175.8 51.8 176.4 50.9 176.3 L 30.8 176.3 C 29.6 176.3 29.3 175.7 29.6 174.4 L 64 75.6 C 64.3 74.5 64.6 73.4 65.1 72.1 C 65.6 69.9 66 67.6 66 65.3 C 65.9 64.8 66.3 64.2 66.9 64.1 L 94.6 64.1 C 95.3 64.1 95.9 64.4 96 65 L 134.8 174.6 C 135.1 175.8 134.8 176.3 133.7 176.3 L 111.4 176.3 C 110.7 176.4 109.9 175.9 109.7 175.1 Z M 67.2 128.3 L 94.3 128.3 C 93.7 126.1 92.8 123.4 91.8 120.6 C 90.8 117.7 89.9 114.6 88.9 111.4 C 87.8 108.1 86.9 104.9 85.8 101.6 C 84.7 98.3 83.8 95.2 82.9 92.1 C 82 89.1 81.3 86.3 80.5 83.8 L 80.3 83.8 C 79.3 88.4 78.2 93 76.7 97.6 C 75.1 102.7 73.5 108.1 71.8 113.4 C 70.5 118.8 68.8 123.8 67.2 128.3 Z M 216.7 92.1 L 216.7 157.6 C 216.7 160.5 216.7 163 216.8 165.3 C 216.9 167.5 217 169.5 217.1 171.2 C 217.3 172.9 217.4 173.9 217.5 175 C 217.6 176 217.2 176.4 216.3 176.4 L 198 176.4 C 197.1 176.5 196.3 176 196 175.2 L 195.4 172.5 C 195.2 171.8 195.2 171 195.2 170.3 C 191.8 173.4 187.6 175.6 183.1 176.9 C 179.3 178 175.2 178.5 171.2 178.5 C 167.2 178.5 163.3 178 159.6 176.7 C 156.2 175.5 153 173.5 150.5 170.8 C 147.7 167.8 145.7 164.3 144.5 160.4 C 143 155.5 142.3 150.4 142.4 145.2 L 142.4 92.2 C 142.3 91.6 142.7 90.9 143.5 90.8 L 164.2 90.8 C 164.8 90.7 165.5 91.1 165.6 91.9 L 165.6 142.4 C 165.6 147.1 166.7 150.8 168.7 153.5 C 170.7 156.2 174.9 157.6 179.7 157.6 C 182.2 157.6 184.6 157.2 187 156.3 C 189.5 155.4 191.7 154.3 193.7 152.8 L 193.7 92.1 C 193.7 91.4 194.2 90.9 195.2 90.9 L 215.6 90.9 C 216.1 90.8 216.8 91.2 216.8 91.8 C 216.7 91.9 216.7 92 216.7 92.1 Z M 0 45.4 L 0 204.6 C 0 229.7 20.3 250 45.4 250 L 211 250 C 236.1 250 256.4 229.7 256.4 204.6 L 256.4 45.4 C 256.4 20.3 236.1 0 211 0 L 45.4 0 C 20.3 0 0 20.3 0 45.4 Z" style="fill-rule: evenodd; fill: rgb(255, 255, 255);"/>
  </g>
</svg>