<?xml version="1.0" encoding="utf-8"?>
<svg xmlns="http://www.w3.org/2000/svg" viewBox="0 0 500 500" xmlns:bx="https://boxy-svg.com">
  <defs>
    <bx:export>
      <bx:file format="svg" href="#object-0" path="Ableton_Black.svg" excluded="true"/>
    </bx:export>
  </defs>
  <path d="M 39.38 363.199 C 39.38 365.127 37.838 366.709 35.899 366.748 L 11.027 366.748 C 8.999 366.748 7.259 365.265 7.259 363.199 L 7.259 136.234 C 7.259 134.751 8.999 132.971 11.027 132.971 L 35.91 132.971 C 37.649 132.971 39.389 134.751 39.389 136.234 L 39.38 363.199 Z M 104.467 363.199 C 104.467 365.127 102.925 366.709 100.987 366.748 L 76.122 366.748 C 74.093 366.748 72.363 365.265 72.363 363.199 L 72.363 136.234 C 72.363 134.751 74.093 132.971 76.122 132.971 L 100.997 132.971 C 102.737 132.971 104.478 134.751 104.478 136.234 L 104.467 363.199 Z M 169.557 363.199 C 169.557 365.127 168.015 366.709 166.077 366.748 L 141.199 366.748 C 139.172 366.748 137.443 365.265 137.443 363.199 L 137.443 136.234 C 137.443 134.751 139.172 132.971 141.199 132.971 L 166.077 132.971 C 167.827 132.971 169.557 134.751 169.557 136.234 L 169.557 363.199 Z M 234.932 363.199 C 234.932 365.127 233.389 366.699 231.462 366.748 L 206.585 366.748 C 204.558 366.748 202.818 365.265 202.818 363.199 L 202.818 136.234 C 202.818 134.751 204.558 132.971 206.585 132.971 L 231.462 132.971 C 233.192 132.971 234.932 134.751 234.932 136.234 L 234.932 363.199 Z M 490.946 132.665 C 492.963 132.665 494.417 134.464 494.417 136.234 L 494.417 161.823 C 494.417 163.909 492.973 165.688 490.946 165.688 L 270.22 165.688 C 268.777 165.688 267.046 163.909 267.046 161.823 L 267.046 136.234 C 267.046 134.454 268.787 132.665 270.22 132.665 L 490.946 132.665 Z M 490.946 199.898 C 492.963 199.898 494.417 201.688 494.417 203.468 L 494.417 229.047 C 494.417 231.123 492.973 232.913 490.946 232.913 L 270.22 232.913 C 268.777 232.913 267.046 231.123 267.046 229.047 L 267.046 203.468 C 267.046 201.679 268.787 199.898 270.22 199.898 L 490.946 199.898 Z M 490.946 266.816 C 492.963 266.816 494.417 268.605 494.417 270.386 L 494.417 295.955 C 494.417 298.061 492.973 299.85 490.946 299.85 L 270.22 299.85 C 268.777 299.85 267.046 298.061 267.046 295.955 L 267.046 270.386 C 267.046 268.586 268.787 266.816 270.22 266.816 L 490.946 266.816 Z M 490.946 333.734 C 492.963 333.734 494.417 335.534 494.417 337.304 L 494.417 362.892 C 494.417 364.978 492.973 366.759 490.946 366.759 L 270.22 366.759 C 268.777 366.759 267.046 364.978 267.046 362.892 L 267.046 337.304 C 267.046 335.524 268.787 333.734 270.22 333.734 L 490.946 333.734 Z" style="stroke-width: 1px;" id="object-0"/>
</svg>